<svg width="64" height="64" viewBox="0 0 64 64" fill="none" xmlns="http://www.w3.org/2000/svg">
  <defs>
    <linearGradient id="chat-gradient" x1="8" y1="8" x2="56" y2="58" gradientUnits="userSpaceOnUse">
      <stop stop-color="#7B19D8"/>
      <stop offset="1" stop-color="#E736A6"/>
    </linearGradient>
    <filter id="logo-shadow" x="0" y="0" width="64" height="64" filterUnits="userSpaceOnUse">
      <feDropShadow dx="0" dy="3" stdDeviation="3" flood-color="#7B19D8" flood-opacity="0.22"/>
    </filter>
  </defs>
  <g filter="url(#logo-shadow)">
    <path d="M11 14.5C11 9.80558 14.8056 6 19.5 6H44.5C49.1944 6 53 9.80558 53 14.5V34.5C53 39.1944 49.1944 43 44.5 43H31.5L21.2 53.3C19.937 54.563 17.7778 53.6682 17.7778 51.882V43H19.5C14.8056 43 11 39.1944 11 34.5V14.5Z" fill="url(#chat-gradient)"/>
    <path d="M25 53.5C25 50.4624 27.4624 48 30.5 48H44.5C49.1944 48 53 44.1944 53 39.5V34.5C53 39.1944 49.1944 43 44.5 43H31.5L25 49.5V53.5Z" fill="#6B16C2" fill-opacity="0.82"/>
  </g>
  <circle cx="24" cy="24" r="3" fill="white"/>
  <circle cx="32" cy="24" r="3" fill="white"/>
  <circle cx="40" cy="24" r="3" fill="white"/>
</svg>
